<?xml version="1.0" encoding="UTF-8"?>
<svg id="Livello_1" xmlns="http://www.w3.org/2000/svg" version="1.1" viewBox="0 0 50 50">
  <!-- Generator: Adobe Illustrator 30.3.0, SVG Export Plug-In . SVG Version: 2.1.3 Build 182)  -->
  <defs>
    <style>
      .st0 {
        fill: #9aa3b2;
      }
    </style>
  </defs>
  <path class="st0" d="M18.6,26.8c0,2.1.2,4.1.4,5.9,1.9-.3,3.9-.4,6-.4s4.1.2,6,.4c.2-1.8.4-3.8.4-5.9h-12.9s.1,0,.1,0Z"/>
  <path class="st0" d="M25,18.3c-2.1,0-4.1-.2-6-.4-.2,1.8-.4,3.8-.4,5.9h12.9c0-2.1-.2-4.1-.4-5.9-1.9.3-3.9.4-6,.4h-.1Z"/>
  <path class="st0" d="M23.8,5.1c-1.6,1.2-3.3,4.6-4.3,9.8,1.7.2,3.5.4,5.5.4s3.8-.1,5.5-.4c-1-5.2-2.7-8.6-4.3-9.8h-1.2c-.4,0-.8,0-1.2,0Z"/>
  <path class="st0" d="M15.6,26.8H5.1c.3,3.5,1.5,6.7,3.4,9.5,2-1.3,4.5-2.3,7.5-3-.3-2.1-.4-4.3-.5-6.5h.1Z"/>
  <path class="st0" d="M25,35.2c-2,0-3.8,0-5.6.4.8,4.4,2.2,7.6,3.5,9.2h4c1.3-1.7,2.7-4.8,3.5-9.2-1.7-.2-3.6-.4-5.6-.4h.2Z"/>
  <path class="st0" d="M19.5,5.8c-3.7,1.1-6.9,3.1-9.4,5.9,1.6,1,3.8,2,6.5,2.6.7-3.3,1.6-6.3,2.9-8.5Z"/>
  <path class="st0" d="M19,44c-1.1-2.2-1.9-4.9-2.5-7.9-2.5.6-4.6,1.4-6.1,2.4,2.3,2.5,5.3,4.4,8.6,5.5Z"/>
  <path class="st0" d="M33.9,17.3c.3,2.1.5,4.3.5,6.5h10.5c-.2-3.5-1.4-6.8-3.2-9.7-2,1.4-4.7,2.5-7.8,3.2Z"/>
  <path class="st0" d="M15.6,23.8c0-2.2.2-4.4.5-6.5-3.1-.7-5.8-1.8-7.8-3.2-1.8,2.8-3,6.1-3.2,9.7h10.5Z"/>
  <path class="st0" d="M34.4,26.8c0,2.2-.2,4.4-.5,6.5,3,.7,5.6,1.7,7.5,3,1.9-2.7,3.1-6,3.4-9.5h-10.4Z"/>
  <path class="st0" d="M31,44c3.3-1.1,6.3-3,8.6-5.5-1.5-1-3.6-1.8-6.1-2.4-.6,3-1.4,5.7-2.5,7.9Z"/>
  <path class="st0" d="M30.5,5.8c1.3,2.2,2.2,5.2,2.9,8.5,2.7-.6,4.9-1.6,6.5-2.6-2.5-2.8-5.7-4.9-9.4-5.9Z"/>
</svg>